<svg width="596" height="183" viewBox="0 0 596 183" fill="none" xmlns="http://www.w3.org/2000/svg">
<circle cx="100.25" cy="91.25" r="84.25" stroke="#3B82F6" stroke-width="14"/>
<circle cx="30.6484" cy="66.9432" r="24" stroke="#3B82F6" stroke-width="12"/>
<path d="M100.631 96.9432L100.631 36.9432" stroke="#3B82F6" stroke-width="12" stroke-linecap="round"/>
<path d="M70.6484 67.1982H130.648" stroke="#3B82F6" stroke-width="12" stroke-linecap="round"/>
<circle cx="170.648" cy="66.9432" r="24" stroke="#3B82F6" stroke-width="12"/>
<path d="M81.9225 139.776C81.3807 138.226 80.9589 136.62 80.6619 134.98L102.775 135.09L124.888 135.2C124.574 136.837 124.137 138.438 123.579 139.983C122.355 143.377 120.59 146.404 118.42 148.91C116.252 151.415 113.733 153.339 111.037 154.625C108.345 155.91 105.504 156.546 102.668 156.532C99.8321 156.518 96.9983 155.854 94.3191 154.542C91.6357 153.229 89.1364 151.28 86.9931 148.754C84.8484 146.227 83.1127 143.182 81.9225 139.776Z" stroke="#3B82F6" stroke-width="12"/>
<path d="M72.6597 114.483C72.6597 114.483 109.138 123.567 110.138 119.067C111.138 114.567 132.66 114.483 132.66 114.483" stroke="#3B82F6" stroke-width="12" stroke-linecap="round"/>
<path d="M225.396 106.258V93.3672C225.396 91.3164 225.494 89.3145 225.689 87.3613C225.934 85.4082 226.446 83.6748 227.228 82.1611C228.009 80.5986 229.132 79.3535 230.597 78.4258C232.062 77.4492 234.039 76.9609 236.529 76.9609C238.971 76.9609 240.924 77.4492 242.389 78.4258C243.854 79.3535 244.952 80.5986 245.685 82.1611C246.466 83.6748 246.954 85.4082 247.149 87.3613C247.394 89.3145 247.516 91.3164 247.516 93.3672V106.258H253.521C254.791 106.258 256.061 106.331 257.33 106.478C258.6 106.575 259.723 106.917 260.699 107.503C261.725 108.089 262.53 108.968 263.116 110.14C263.751 111.312 264.068 112.947 264.068 115.047C264.068 117.049 263.751 118.636 263.116 119.808C262.53 120.979 261.725 121.858 260.699 122.444C259.723 123.03 258.6 123.421 257.33 123.616C256.061 123.763 254.791 123.836 253.521 123.836H247.516V149.471C247.516 150.447 247.54 151.497 247.589 152.62C247.687 153.694 247.955 154.695 248.395 155.623C248.834 156.551 249.493 157.332 250.372 157.967C251.251 158.553 252.496 158.846 254.107 158.846C255.865 158.846 257.354 158.992 258.575 159.285C259.845 159.529 260.87 159.993 261.651 160.677C262.481 161.36 263.092 162.312 263.482 163.533C263.873 164.754 264.068 166.316 264.068 168.221C264.068 170.174 263.604 171.858 262.677 173.274C261.798 174.69 260.602 175.862 259.088 176.79C257.574 177.718 255.816 178.401 253.814 178.841C251.812 179.28 249.713 179.5 247.516 179.5C244.049 179.5 241.07 179.134 238.58 178.401C236.139 177.669 234.088 176.644 232.428 175.325C230.816 173.958 229.522 172.347 228.546 170.491C227.618 168.587 226.91 166.463 226.422 164.119C225.982 161.775 225.689 159.261 225.543 156.575C225.445 153.841 225.396 150.984 225.396 148.006V123.836H221.295C220.025 123.836 218.756 123.763 217.486 123.616C216.266 123.421 215.167 123.03 214.19 122.444C213.214 121.858 212.408 120.979 211.773 119.808C211.188 118.636 210.895 117.049 210.895 115.047C210.895 112.947 211.188 111.312 211.773 110.14C212.408 108.968 213.214 108.089 214.19 107.503C215.167 106.917 216.266 106.575 217.486 106.478C218.756 106.331 220.025 106.258 221.295 106.258H225.396ZM256.434 133.797C256.434 129.305 257.044 125.496 258.265 122.371C259.485 119.246 261.048 116.634 262.952 114.534C264.905 112.435 267.054 110.799 269.397 109.627C271.79 108.455 274.134 107.576 276.429 106.99C278.724 106.404 280.848 106.038 282.801 105.892C284.803 105.745 286.365 105.672 287.488 105.672C288.611 105.672 290.149 105.745 292.103 105.892C294.056 106.038 296.131 106.404 298.328 106.99C300.574 107.576 302.82 108.455 305.066 109.627C307.361 110.799 309.412 112.435 311.219 114.534C313.074 116.634 314.588 119.246 315.76 122.371C316.932 125.496 317.518 129.305 317.518 133.797V151.961C317.518 156.453 316.932 160.262 315.76 163.387C314.588 166.512 313.074 169.124 311.219 171.224C309.412 173.323 307.361 174.959 305.066 176.131C302.82 177.303 300.574 178.182 298.328 178.768C296.131 179.354 294.056 179.72 292.103 179.866C290.149 180.013 288.611 180.086 287.488 180.086C286.365 180.086 284.803 180.013 282.801 179.866C280.848 179.72 278.724 179.354 276.429 178.768C274.134 178.182 271.79 177.303 269.397 176.131C267.054 174.959 264.905 173.323 262.952 171.224C261.048 169.124 259.485 166.512 258.265 163.387C257.044 160.262 256.434 156.453 256.434 151.961V133.797ZM278.992 157.088C279.041 158.504 279.383 159.749 280.018 160.823C280.555 161.8 281.385 162.679 282.508 163.46C283.68 164.192 285.34 164.559 287.488 164.559C289.539 164.559 291.102 164.192 292.176 163.46C293.299 162.679 294.129 161.8 294.666 160.823C295.252 159.749 295.594 158.504 295.691 157.088V130.574C295.594 129.109 295.252 127.767 294.666 126.546C294.129 125.569 293.299 124.666 292.176 123.836C291.102 122.957 289.539 122.518 287.488 122.518C285.34 122.518 283.68 122.957 282.508 123.836C281.385 124.666 280.555 125.569 280.018 126.546C279.383 127.767 279.041 129.109 278.992 130.574V157.088ZM322.627 106.258V93.3672C322.627 91.3164 322.725 89.3145 322.92 87.3613C323.164 85.4082 323.677 83.6748 324.458 82.1611C325.239 80.5986 326.362 79.3535 327.827 78.4258C329.292 77.4492 331.27 76.9609 333.76 76.9609C336.201 76.9609 338.154 77.4492 339.619 78.4258C341.084 79.3535 342.183 80.5986 342.915 82.1611C343.696 83.6748 344.185 85.4082 344.38 87.3613C344.624 89.3145 344.746 91.3164 344.746 93.3672V106.258H350.752C352.021 106.258 353.291 106.331 354.561 106.478C355.83 106.575 356.953 106.917 357.93 107.503C358.955 108.089 359.761 108.968 360.347 110.14C360.981 111.312 361.299 112.947 361.299 115.047C361.299 117.049 360.981 118.636 360.347 119.808C359.761 120.979 358.955 121.858 357.93 122.444C356.953 123.03 355.83 123.421 354.561 123.616C353.291 123.763 352.021 123.836 350.752 123.836H344.746V149.471C344.746 150.447 344.771 151.497 344.819 152.62C344.917 153.694 345.186 154.695 345.625 155.623C346.064 156.551 346.724 157.332 347.603 157.967C348.481 158.553 349.727 158.846 351.338 158.846C353.096 158.846 354.585 158.992 355.806 159.285C357.075 159.529 358.101 159.993 358.882 160.677C359.712 161.36 360.322 162.312 360.713 163.533C361.104 164.754 361.299 166.316 361.299 168.221C361.299 170.174 360.835 171.858 359.907 173.274C359.028 174.69 357.832 175.862 356.318 176.79C354.805 177.718 353.047 178.401 351.045 178.841C349.043 179.28 346.943 179.5 344.746 179.5C341.279 179.5 338.301 179.134 335.811 178.401C333.369 177.669 331.318 176.644 329.658 175.325C328.047 173.958 326.753 172.347 325.776 170.491C324.849 168.587 324.141 166.463 323.652 164.119C323.213 161.775 322.92 159.261 322.773 156.575C322.676 153.841 322.627 150.984 322.627 148.006V123.836H318.525C317.256 123.836 315.986 123.763 314.717 123.616C313.496 123.421 312.397 123.03 311.421 122.444C310.444 121.858 309.639 120.979 309.004 119.808C308.418 118.636 308.125 117.049 308.125 115.047C308.125 112.947 308.418 111.312 309.004 110.14C309.639 108.968 310.444 108.089 311.421 107.503C312.397 106.917 313.496 106.575 314.717 106.478C315.986 106.331 317.256 106.258 318.525 106.258H322.627ZM353.664 133.797C353.664 129.305 354.274 125.496 355.495 122.371C356.716 119.246 358.278 116.634 360.183 114.534C362.136 112.435 364.284 110.799 366.628 109.627C369.021 108.455 371.364 107.576 373.659 106.99C375.954 106.404 378.078 106.038 380.031 105.892C382.033 105.745 383.596 105.672 384.719 105.672C385.842 105.672 387.38 105.745 389.333 105.892C391.286 106.038 393.361 106.404 395.559 106.99C397.805 107.576 400.051 108.455 402.297 109.627C404.592 110.799 406.643 112.435 408.449 114.534C410.305 116.634 411.818 119.246 412.99 122.371C414.162 125.496 414.748 129.305 414.748 133.797V151.961C414.748 156.453 414.162 160.262 412.99 163.387C411.818 166.512 410.305 169.124 408.449 171.224C406.643 173.323 404.592 174.959 402.297 176.131C400.051 177.303 397.805 178.182 395.559 178.768C393.361 179.354 391.286 179.72 389.333 179.866C387.38 180.013 385.842 180.086 384.719 180.086C383.596 180.086 382.033 180.013 380.031 179.866C378.078 179.72 375.954 179.354 373.659 178.768C371.364 178.182 369.021 177.303 366.628 176.131C364.284 174.959 362.136 173.323 360.183 171.224C358.278 169.124 356.716 166.512 355.495 163.387C354.274 160.262 353.664 156.453 353.664 151.961V133.797ZM376.223 157.088C376.271 158.504 376.613 159.749 377.248 160.823C377.785 161.8 378.615 162.679 379.738 163.46C380.91 164.192 382.57 164.559 384.719 164.559C386.77 164.559 388.332 164.192 389.406 163.46C390.529 162.679 391.359 161.8 391.896 160.823C392.482 159.749 392.824 158.504 392.922 157.088V130.574C392.824 129.109 392.482 127.767 391.896 126.546C391.359 125.569 390.529 124.666 389.406 123.836C388.332 122.957 386.77 122.518 384.719 122.518C382.57 122.518 380.91 122.957 379.738 123.836C378.615 124.666 377.785 125.569 377.248 126.546C376.613 127.767 376.271 129.109 376.223 130.574V157.088ZM440.219 180.086C434.848 180.086 430.209 179.476 426.303 178.255C422.445 177.034 419.174 175.447 416.488 173.494C413.852 171.541 411.728 169.344 410.116 166.902C408.505 164.412 407.26 161.897 406.381 159.358C405.551 156.819 404.989 154.378 404.696 152.034C404.452 149.69 404.33 147.664 404.33 145.955C404.33 145.223 404.379 144.344 404.477 143.318C404.623 142.244 405.062 141.219 405.795 140.242C406.527 139.266 407.675 138.436 409.237 137.752C410.849 137.068 413.119 136.727 416.049 136.727C417.025 136.727 418.246 136.8 419.711 136.946C421.176 137.044 422.592 137.361 423.959 137.898C425.326 138.387 426.498 139.119 427.475 140.096C428.451 141.072 428.939 142.391 428.939 144.051C428.939 146.688 429.086 149.056 429.379 151.155C429.721 153.255 430.307 155.037 431.137 156.502C431.967 157.967 433.114 159.09 434.579 159.871C436.044 160.652 437.924 161.043 440.219 161.043C442.611 161.043 444.442 160.555 445.712 159.578C447.03 158.602 447.982 157.503 448.568 156.282C449.252 154.915 449.643 153.328 449.74 151.521V97.7617H430.551C428.598 97.7617 426.645 97.6641 424.691 97.4688C422.738 97.2734 420.956 96.834 419.345 96.1504C417.782 95.4668 416.488 94.4414 415.463 93.0742C414.486 91.707 413.998 89.8516 413.998 87.5078C413.998 85.1152 414.486 83.2109 415.463 81.7949C416.488 80.3789 417.782 79.3291 419.345 78.6455C420.956 77.9131 422.738 77.4492 424.691 77.2539C426.645 77.0586 428.598 76.9609 430.551 76.9609H460.434C463.217 76.9609 465.414 77.4492 467.025 78.4258C468.686 79.4023 469.931 80.6963 470.761 82.3076C471.591 83.8701 472.128 85.6523 472.372 87.6543C472.616 89.6562 472.738 91.707 472.738 93.8066V149.471C472.738 154.549 472.006 158.846 470.541 162.361C469.076 165.877 467.221 168.782 464.975 171.077C462.777 173.323 460.336 175.057 457.65 176.277C455.014 177.498 452.475 178.401 450.033 178.987C447.641 179.524 445.541 179.842 443.734 179.939C441.928 180.037 440.756 180.086 440.219 180.086ZM471.145 133.797C471.145 129.305 471.755 125.496 472.976 122.371C474.196 119.246 475.759 116.634 477.663 114.534C479.616 112.435 481.765 110.799 484.108 109.627C486.501 108.455 488.845 107.576 491.14 106.99C493.435 106.404 495.559 106.038 497.512 105.892C499.514 105.745 501.076 105.672 502.199 105.672C503.322 105.672 504.86 105.745 506.813 105.892C508.767 106.038 510.842 106.404 513.039 106.99C515.285 107.576 517.531 108.455 519.777 109.627C522.072 110.799 524.123 112.435 525.93 114.534C527.785 116.634 529.299 119.246 530.471 122.371C531.643 125.496 532.229 129.305 532.229 133.797V151.961C532.229 156.453 531.643 160.262 530.471 163.387C529.299 166.512 527.785 169.124 525.93 171.224C524.123 173.323 522.072 174.959 519.777 176.131C517.531 177.303 515.285 178.182 513.039 178.768C510.842 179.354 508.767 179.72 506.813 179.866C504.86 180.013 503.322 180.086 502.199 180.086C501.076 180.086 499.514 180.013 497.512 179.866C495.559 179.72 493.435 179.354 491.14 178.768C488.845 178.182 486.501 177.303 484.108 176.131C481.765 174.959 479.616 173.323 477.663 171.224C475.759 169.124 474.196 166.512 472.976 163.387C471.755 160.262 471.145 156.453 471.145 151.961V133.797ZM493.703 157.088C493.752 158.504 494.094 159.749 494.729 160.823C495.266 161.8 496.096 162.679 497.219 163.46C498.391 164.192 500.051 164.559 502.199 164.559C504.25 164.559 505.812 164.192 506.887 163.46C508.01 162.679 508.84 161.8 509.377 160.823C509.963 159.749 510.305 158.504 510.402 157.088V130.574C510.305 129.109 509.963 127.767 509.377 126.546C508.84 125.569 508.01 124.666 506.887 123.836C505.812 122.957 504.25 122.518 502.199 122.518C500.051 122.518 498.391 122.957 497.219 123.836C496.096 124.666 495.266 125.569 494.729 126.546C494.094 127.767 493.752 129.109 493.703 130.574V157.088ZM527.23 93.6602C527.23 91.5605 527.328 89.5098 527.523 87.5078C527.768 85.457 528.256 83.6748 528.988 82.1611C529.77 80.5986 530.893 79.3535 532.357 78.4258C533.822 77.4492 535.775 76.9609 538.217 76.9609C540.756 76.9609 542.782 77.4492 544.296 78.4258C545.81 79.3535 546.933 80.5986 547.665 82.1611C548.446 83.6748 548.935 85.457 549.13 87.5078C549.374 89.5098 549.496 91.5605 549.496 93.6602V118.709C549.936 117.244 550.546 115.779 551.327 114.314C552.157 112.85 553.207 111.531 554.477 110.359C555.746 109.188 557.26 108.235 559.018 107.503C560.824 106.771 562.924 106.404 565.316 106.404C568.002 106.404 570.688 106.844 573.373 107.723C576.059 108.602 578.476 110.066 580.624 112.117C582.772 114.119 584.506 116.78 585.824 120.101C587.191 123.372 587.875 127.449 587.875 132.332V153.572C587.875 158.406 587.191 162.483 585.824 165.804C584.506 169.075 582.772 171.736 580.624 173.787C578.476 175.838 576.059 177.303 573.373 178.182C570.688 179.061 568.002 179.5 565.316 179.5C562.924 179.5 560.824 179.134 559.018 178.401C557.26 177.62 555.746 176.644 554.477 175.472C553.207 174.3 552.157 172.981 551.327 171.517C550.546 170.052 549.936 168.611 549.496 167.195C549.496 168.172 549.398 169.368 549.203 170.784C549.057 172.2 548.617 173.567 547.885 174.886C547.152 176.155 546.029 177.254 544.516 178.182C543.002 179.061 540.902 179.5 538.217 179.5C535.58 179.5 533.529 179.036 532.064 178.108C530.6 177.132 529.501 175.862 528.769 174.3C528.036 172.737 527.597 170.979 527.45 169.026C527.304 167.024 527.23 164.998 527.23 162.947V93.6602ZM565.316 133.943C565.316 132.674 565.268 131.429 565.17 130.208C565.072 128.938 564.804 127.815 564.364 126.839C563.925 125.862 563.266 125.081 562.387 124.495C561.557 123.86 560.385 123.543 558.871 123.543C556.967 123.543 555.404 124.153 554.184 125.374C552.963 126.595 552.011 128.084 551.327 129.842C550.644 131.6 550.155 133.479 549.862 135.481C549.618 137.435 549.496 139.168 549.496 140.682C549.545 144.441 549.691 147.688 549.936 150.423C550.229 153.108 550.717 155.354 551.4 157.161C552.084 158.919 553.012 160.237 554.184 161.116C555.404 161.946 556.967 162.361 558.871 162.361C560.385 162.361 561.557 162.068 562.387 161.482C563.266 160.848 563.925 160.018 564.364 158.992C564.804 157.967 565.072 156.819 565.17 155.55C565.268 154.28 565.316 152.986 565.316 151.668V133.943Z" fill="#3B82F6"/>
</svg>
